<svg width="46" height="24" viewBox="0 0 46 24" fill="none" xmlns="http://www.w3.org/2000/svg">
<path fill-rule="evenodd" clip-rule="evenodd" d="M5.46397 11.4254C-2.64547 15.876 19.1986 18.5791 24.1197 18.5353V15.8212L28.2091 19.907L24.1197 24V21.4574C14.23 21.8331 -9.04766 15.4674 4.95326 10.1851C5.08458 10.5974 5.24509 10.9877 5.42749 11.3525L5.46397 11.4254ZM40.116 3.03146C40.116 2.07934 40.2875 1.41176 40.6304 1.03238C40.9733 0.652987 41.495 0.463292 42.199 0.463292C42.5347 0.463292 42.8155 0.507068 43.0308 0.587323C43.246 0.671227 43.4248 0.777018 43.5597 0.911993C43.6984 1.04332 43.8041 1.18559 43.8844 1.33151C43.9647 1.47743 44.0267 1.64888 44.0741 1.84587C44.1689 2.21797 44.2127 2.6083 44.2127 3.01687C44.2127 3.92522 44.0595 4.5928 43.7494 5.01231C43.443 5.43183 42.914 5.64341 42.1589 5.64341C41.7394 5.64341 41.3965 5.5741 41.1375 5.44277C40.8785 5.3078 40.6632 5.11081 40.4991 4.8518C40.3787 4.66575 40.2839 4.41404 40.2182 4.09667C40.1489 3.772 40.116 3.4218 40.116 3.03146ZM10.2428 3.82672L6.95964 3.24305C7.23324 2.19973 7.7549 1.39717 8.53192 0.839033C9.30529 0.280894 10.4033 0 11.8224 0C13.453 0 14.6277 0.302782 15.3573 0.911993C16.0832 1.5212 16.4444 2.28728 16.4444 3.20657C16.4444 3.74647 16.2948 4.23529 16.003 4.6694C15.7075 5.10716 15.2661 5.4902 14.6715 5.81851C15.153 5.9389 15.5251 6.07752 15.7768 6.23803C16.1927 6.49339 16.5137 6.83265 16.7435 7.24852C16.9733 7.66804 17.0901 8.16416 17.0901 8.74419C17.0901 9.47378 16.9004 10.1705 16.521 10.8418C16.1379 11.5093 15.5907 12.0237 14.8757 12.3849C14.1607 12.746 13.2196 12.9248 12.0522 12.9248C10.9177 12.9248 10.0203 12.7898 9.3673 12.5235C8.71067 12.2572 8.17077 11.8668 7.7476 11.3488C7.32444 10.8345 6.99977 10.1851 6.77359 9.40447L10.2501 8.94118C10.3887 9.64159 10.5967 10.1304 10.8849 10.404C11.1694 10.674 11.5342 10.8126 11.9792 10.8126C12.4425 10.8126 12.8292 10.6411 13.1393 10.3019C13.4494 9.96261 13.6026 9.50661 13.6026 8.93753C13.6026 8.3575 13.453 7.9088 13.1575 7.59143C12.8621 7.27405 12.4571 7.11354 11.9464 7.11354C11.6765 7.11354 11.3007 7.17921 10.8265 7.31783L11.0052 4.83356C11.1949 4.86275 11.3445 4.87734 11.4503 4.87734C11.899 4.87734 12.2747 4.73142 12.5739 4.44323C12.873 4.15504 13.0262 3.81578 13.0262 3.41815C13.0262 3.03511 12.9131 2.73233 12.687 2.5098C12.4608 2.28363 12.1471 2.17054 11.7567 2.17054C11.3482 2.17054 11.0198 2.29457 10.7645 2.53899C10.5055 2.77975 10.334 3.21021 10.2428 3.82672ZM28.0011 3.01687L24.5429 3.44004C24.4517 2.9585 24.3021 2.62289 24.0905 2.4259C23.8753 2.22891 23.6126 2.13041 23.3026 2.13041C22.7408 2.13041 22.303 2.41131 21.9929 2.98039C21.7668 3.39261 21.5953 4.26448 21.4895 5.60328C21.9054 5.18012 22.3322 4.87004 22.7663 4.6694C23.2041 4.46876 23.7111 4.36662 24.2839 4.36662C25.4001 4.36662 26.3413 4.76425 27.111 5.55951C27.8808 6.35841 28.2674 7.3689 28.2674 8.59097C28.2674 9.41541 28.0741 10.1669 27.6838 10.8527C27.2934 11.5349 26.7535 12.0529 26.0641 12.4031C25.3709 12.7533 24.5064 12.9284 23.4631 12.9284C22.2118 12.9284 21.2086 12.7168 20.4535 12.2864C19.6984 11.8596 19.0928 11.181 18.6404 10.2472C18.1881 9.31327 17.9619 8.07661 17.9619 6.53352C17.9619 4.27907 18.4362 2.62654 19.3883 1.57592C20.3331 0.525308 21.65 0 23.3354 0C24.3313 0 25.1156 0.113087 25.692 0.342909C26.2684 0.572731 26.7499 0.911993 27.1293 1.34975C27.5123 1.7948 27.8041 2.34929 28.0011 3.01687ZM21.6062 8.59097C21.6062 9.26949 21.7777 9.79845 22.117 10.1815C22.4599 10.5645 22.8757 10.7579 23.3719 10.7579C23.8279 10.7579 24.2109 10.5828 24.5173 10.2362C24.8238 9.88965 24.977 9.37164 24.977 8.68217C24.977 7.97811 24.8165 7.43821 24.4991 7.06977C24.1781 6.70132 23.7841 6.51528 23.3098 6.51528C22.8283 6.51528 22.4197 6.69403 22.0914 7.05518C21.7668 7.41268 21.6062 7.92339 21.6062 8.59097ZM29.008 6.40948C29.008 4.03466 29.4348 2.37118 30.2921 1.42271C31.1457 0.474236 32.4517 0 34.199 0C35.0417 0 35.7312 0.105791 36.2711 0.310078C36.811 0.518012 37.2524 0.787962 37.5917 1.11993C37.9346 1.45189 38.2045 1.8021 38.3979 2.16689C38.5948 2.53534 38.7517 2.96215 38.8721 3.45098C39.1056 4.38121 39.2223 5.35522 39.2223 6.36936C39.2223 8.63839 38.8393 10.2946 38.0695 11.3452C37.3035 12.3958 35.9829 12.9211 34.1042 12.9211C33.0536 12.9211 32.2036 12.7533 31.5543 12.4177C30.9049 12.0821 30.376 11.5896 29.9601 10.9403C29.661 10.4806 29.4238 9.85317 29.256 9.05426C29.0919 8.25901 29.008 7.3762 29.008 6.40948ZM32.448 6.41678C32.448 8.0073 32.5866 9.09439 32.8712 9.67807C33.1521 10.2617 33.5606 10.5499 34.0969 10.5499C34.4507 10.5499 34.7535 10.4259 35.0125 10.1815C35.2715 9.93342 35.4612 9.53944 35.5816 9.00684C35.7057 8.47059 35.764 7.63885 35.764 6.50798C35.764 4.84815 35.6254 3.73552 35.3409 3.15914C35.06 2.59006 34.6368 2.30187 34.075 2.30187C33.4986 2.30187 33.0864 2.59371 32.8274 3.17373C32.5757 3.76106 32.448 4.84086 32.448 6.41678ZM41.495 3.03511C41.495 3.67351 41.5497 4.10761 41.6628 4.34108C41.7759 4.57456 41.94 4.69129 42.1553 4.69129C42.2975 4.69129 42.4179 4.64387 42.5237 4.54172C42.6259 4.44323 42.7025 4.28637 42.7535 4.07114C42.801 3.85591 42.8265 3.52394 42.8265 3.07159C42.8265 2.40766 42.7718 1.95896 42.6587 1.72914C42.5456 1.49932 42.3778 1.38623 42.1516 1.38623C41.9218 1.38623 41.754 1.50296 41.6518 1.73643C41.5461 1.9699 41.495 2.40401 41.495 3.03511ZM40.459 11.0278C44.3112 12.9868 43.3919 15.7665 36.5702 17.4555C34.6368 17.9334 32.4517 18.3675 30.0549 18.5463V20.7533C32.7216 20.5673 35.2022 19.9544 37.3728 19.4291C47.6309 16.9448 47.2734 12.5089 40.7873 10.0064C40.6961 10.3675 40.5866 10.7068 40.459 11.0278Z" fill="#000034"/>
</svg>
