<svg width="60" height="48" viewBox="0 0 60 48" fill="none" xmlns="http://www.w3.org/2000/svg">
<g clip-path="url(#clip0_1519_22992)">
<g filter="url(#filter0_d_1519_22992)">
<path fill-rule="evenodd" clip-rule="evenodd" d="M37.4226 11.4714L45.0832 19.234V22.8845H41.4571V20.1381H38.4531V17.1342H35.5804L34.7492 14.4267C33.4271 15.3114 31.8182 15.8266 30.0926 15.8266C25.5624 15.8266 21.8876 12.2831 21.8876 7.91332C21.8876 3.54349 25.5624 0 30.0926 0C34.6228 0 38.2976 3.54349 38.2976 7.91332C38.2976 9.1917 37.9816 10.402 37.4226 11.4714ZM0.135742 22.1019H12.205V43.5767H0.135742V22.1019ZM14.6354 41.7734V23.8274H22.7091C26.1311 24.4399 29.5531 26.2967 32.975 28.45H39.2454C42.0841 28.6201 43.5715 31.4977 40.8106 33.3886C38.6087 35.0023 35.7116 34.91 32.7369 34.6426C30.6856 34.5406 30.5981 37.2966 32.7369 37.3063C33.4805 37.3647 34.2874 37.1897 34.9922 37.1897C38.701 37.1848 41.7584 36.4751 43.6298 33.5441L44.5679 31.3519L53.8957 26.7293C58.5621 25.1933 61.8771 30.0735 58.4405 33.4712C51.6889 38.3806 44.7624 42.4247 37.6754 45.6911C32.5278 48.8215 27.3803 48.7145 22.2376 45.6911L14.6354 41.7734ZM28.9114 5.38086C29.7183 5.38086 30.3745 6.03706 30.3745 6.84395C30.3745 7.65083 29.7183 8.30704 28.9114 8.30704C28.0997 8.30704 27.4483 7.65083 27.4483 6.84395C27.4483 6.0322 28.1045 5.38086 28.9114 5.38086Z" fill="url(#paint0_linear_1519_22992)"/>
<path d="M45.5832 19.234V19.0289L45.4391 18.8828L38.0287 11.3737C38.5219 10.3183 38.7976 9.14533 38.7976 7.91332C38.7976 3.25042 34.8817 -0.5 30.0926 -0.5C25.3035 -0.5 21.3876 3.25042 21.3876 7.91332C21.3876 12.5762 25.3035 16.3266 30.0926 16.3266C31.6793 16.3266 33.1751 15.9148 34.4607 15.1907L35.1024 17.2809L35.2109 17.6342H35.5804H37.9531V20.1381V20.6381H38.4531H40.9571V22.8845V23.3845H41.4571H45.0832H45.5832V22.8845V19.234ZM0.135742 21.6019H-0.364258V22.1019V43.5767V44.0767H0.135742H12.205H12.705V43.5767V22.1019V21.6019H12.205H0.135742ZM14.1354 41.7734V42.0782L14.4063 42.2178L21.9962 46.1292C24.6252 47.6725 27.2793 48.4849 29.9521 48.4988C32.6219 48.5126 35.2772 47.7295 37.9105 46.1333C45.0188 42.855 51.9651 38.798 58.7346 33.8756L58.7652 33.8533L58.7921 33.8267C60.6749 31.9652 60.7433 29.6297 59.6209 27.97C58.5053 26.3204 56.2712 25.421 53.7394 26.2544L53.7056 26.2655L53.6737 26.2813L44.3459 30.9039L44.1808 30.9857L44.1083 31.1552L43.1866 33.309C41.4563 35.9878 38.6393 36.6849 34.9916 36.6897C34.6683 36.6897 34.3249 36.7236 34.0056 36.7552C33.9467 36.761 33.8887 36.7667 33.8317 36.7721C33.4501 36.8085 33.1005 36.8333 32.7759 36.8079L32.7576 36.8064L32.7391 36.8063C32.3159 36.8044 32.0525 36.6695 31.8981 36.5165C31.7398 36.3597 31.6622 36.1511 31.6655 35.9406C31.669 35.7296 31.7536 35.5267 31.9108 35.381C32.0618 35.2409 32.3121 35.1242 32.7027 35.1416C35.6497 35.4061 38.7293 35.5295 41.0997 33.7966C42.62 32.7522 43.0781 31.3327 42.5936 30.0921C42.1269 28.8972 40.8474 28.0451 39.2753 27.9509L39.2604 27.95H39.2454H33.1191C29.7315 25.8254 26.28 23.9586 22.7972 23.3353L22.7535 23.3274H22.7091H14.6354H14.1354V23.8274V41.7734ZM28.9114 5.88086C29.4422 5.88086 29.8745 6.3132 29.8745 6.84395C29.8745 7.37469 29.4422 7.80704 28.9114 7.80704C28.3769 7.80704 27.9483 7.37577 27.9483 6.84395C27.9483 6.30943 28.3796 5.88086 28.9114 5.88086Z" stroke="#1C2137"/>
</g>
</g>
<defs>
<filter id="filter0_d_1519_22992" x="-1.86426" y="-2" width="69.7236" height="57.999" filterUnits="userSpaceOnUse" color-interpolation-filters="sRGB">
<feFlood flood-opacity="0" result="BackgroundImageFix"/>
<feColorMatrix in="SourceAlpha" type="matrix" values="0 0 0 0 0 0 0 0 0 0 0 0 0 0 0 0 0 0 127 0" result="hardAlpha"/>
<feOffset dx="3" dy="3"/>
<feGaussianBlur stdDeviation="2"/>
<feComposite in2="hardAlpha" operator="out"/>
<feColorMatrix type="matrix" values="0 0 0 0 1 0 0 0 0 0.592157 0 0 0 0 0 0 0 0 0.72 0"/>
<feBlend mode="normal" in2="BackgroundImageFix" result="effect1_dropShadow_1519_22992"/>
<feBlend mode="normal" in="SourceGraphic" in2="effect1_dropShadow_1519_22992" result="shape"/>
</filter>
<linearGradient id="paint0_linear_1519_22992" x1="29.9972" y1="0" x2="29.9972" y2="47.999" gradientUnits="userSpaceOnUse">
<stop stop-color="#F5F6FA"/>
<stop offset="1" stop-color="#FF9700"/>
</linearGradient>
<clipPath id="clip0_1519_22992">
<rect width="59.729" height="48" fill="white" transform="translate(0.135742)"/>
</clipPath>
</defs>
</svg>
