<svg width="33" height="24" viewBox="0 0 33 24" fill="none" xmlns="http://www.w3.org/2000/svg">
<path d="M24.9373 5.62403L24.9222 5.60388C24.8441 5.49049 24.6879 5.46529 24.577 5.5434L22.662 6.88388C22.5487 6.96199 22.5235 7.11821 22.6016 7.22907L22.6167 7.24923C22.6948 7.36262 22.851 7.38781 22.9619 7.3097L24.8769 5.96923C24.9877 5.89112 25.0154 5.7349 24.9373 5.62403ZM29.9868 13.1831L28.9487 18.0259C28.6917 19.2303 28.1096 20.15 27.2831 20.7799C26.7112 21.2158 26.0283 21.5056 25.2598 21.6492L25.9402 23.1056C26.0863 23.4206 25.9502 23.796 25.6353 23.9421C25.3203 24.0883 24.9449 23.9522 24.7987 23.6373L23.9168 21.7525H8.84409L7.9622 23.6373C7.81606 23.9522 7.44063 24.0883 7.12567 23.9421C6.81071 23.796 6.67465 23.4206 6.82079 23.1056L7.46331 21.7299C6.48063 21.6442 5.67433 21.3292 5.02425 20.79C4.26583 20.1601 3.74677 19.2455 3.43685 18.0536L2.15937 13.1831H1.16157C0.844095 13.1831 0.554331 13.0521 0.342677 12.8429V12.8404L0.340157 12.8429C0.131024 12.6313 0 12.3415 0 12.0215V10.9658C0 10.6458 0.131024 10.356 0.340157 10.1443C0.355276 10.1292 0.372913 10.1116 0.390551 10.099C0.594646 9.91506 0.864252 9.80419 1.15906 9.80419H1.31276C1.35559 9.34561 1.53197 8.91222 1.80409 8.53427C2.08126 8.14624 2.46425 7.81616 2.90016 7.58939C3.33858 7.3601 3.83496 7.23159 4.33638 7.24671C4.77732 7.26183 5.21575 7.38277 5.62142 7.63978C5.7978 7.38277 6.01701 7.15348 6.26898 6.96451C6.76283 6.59411 7.38016 6.37238 8.04787 6.37238C8.60221 6.37238 9.12126 6.52356 9.56221 6.78561C9.9074 6.9897 10.2047 7.26435 10.4365 7.58687C11.1395 7.6423 11.7745 7.94214 12.2507 8.40073C12.6413 8.77868 12.9235 9.26246 13.0469 9.80167H29.9918V3.55285C29.6239 1.74624 28.5808 1.2549 27.1874 1.45395C27.8148 2.5475 27.7342 3.65868 26.8447 4.79254C26.9581 4.97647 26.948 5.17805 26.8246 5.39222L26.5474 5.71222C26.4365 5.82561 26.298 5.83569 26.1191 5.69207L21.8608 1.39096C21.7449 1.25238 21.7676 1.13144 21.9036 1.02561C22.206 0.655215 22.2438 0.592223 22.7805 0.682931C23.9748 -0.0931317 25.1112 -0.231714 26.182 0.383089C28.8706 -0.720533 31.1584 0.665294 31.4683 3.48734V9.87726C31.6271 9.93521 31.7682 10.0284 31.8841 10.1443C32.0932 10.3535 32.2243 10.6458 32.2243 10.9658V12.0215C32.2243 12.3415 32.0932 12.6313 31.8841 12.8429C31.675 13.0521 31.3827 13.1831 31.0652 13.1831H29.9868ZM22.526 3.55285L22.5109 3.5327C22.4328 3.41931 22.2765 3.39411 22.1657 3.47222L20.2507 4.8127C20.1373 4.89081 20.1121 5.04703 20.1902 5.15789L20.2054 5.17805C20.2835 5.29143 20.4397 5.31663 20.5506 5.23852L22.4655 3.89805C22.5789 3.81994 22.6041 3.66372 22.526 3.55285ZM21.4249 2.44419L21.4098 2.42403C21.3317 2.31065 21.1754 2.28545 21.0646 2.36356L19.1496 3.70403C19.0362 3.78214 19.011 3.93836 19.0891 4.04923L19.1043 4.06939C19.1824 4.18277 19.3386 4.20797 19.4494 4.12986L21.3644 2.78939C21.4753 2.71128 21.503 2.55506 21.4249 2.44419ZM23.6246 4.62372L23.6094 4.60356C23.5313 4.49018 23.3751 4.46498 23.2643 4.54309L21.3493 5.88356C21.2359 5.96167 21.2107 6.11789 21.2888 6.22876L21.3039 6.24892C21.382 6.3623 21.5383 6.3875 21.6491 6.30939L23.5666 4.96892C23.675 4.89081 23.7027 4.7371 23.6246 4.62372ZM2.59276 9.80419H11.7266C11.646 9.61773 11.5276 9.45143 11.3814 9.31285C11.0816 9.02309 10.6658 8.84419 10.2047 8.84419C10.1342 8.84419 10.2098 8.84167 10.1619 8.84167L10.1191 8.84419C9.88221 8.85427 9.64787 8.7308 9.53197 8.50655C9.39591 8.24702 9.18425 8.02781 8.92472 7.87411C8.67276 7.72545 8.37291 7.63726 8.05291 7.63726C7.66488 7.63726 7.30961 7.76325 7.02992 7.97238C6.75024 8.18403 6.5411 8.47884 6.45039 8.81647C6.42016 8.94498 6.34709 9.06592 6.23622 9.15663C5.96661 9.37584 5.5685 9.33553 5.34929 9.06592C5.03937 8.68545 4.66646 8.51915 4.3011 8.50655C4.02394 8.49647 3.74173 8.57206 3.48724 8.70561C3.23024 8.84167 3.00346 9.03821 2.83465 9.27002C2.71622 9.43632 2.63055 9.61773 2.59276 9.80419ZM2.14173 11.0691C2.04094 11.0943 1.94016 11.0918 1.84441 11.0691H1.26488V11.9157H30.9619V11.0691H2.14173ZM3.46205 13.1831L4.65638 17.7362C4.89827 18.6634 5.28126 19.3614 5.83055 19.8149C6.36724 20.2609 7.09039 20.4877 8.03024 20.4877H24.0932C25.0658 20.4877 25.8948 20.2483 26.5146 19.7771C27.1043 19.3286 27.52 18.6558 27.7115 17.7639L28.6942 13.1831H3.46205Z" fill="#005F73" stroke="#005F73"/>
</svg>
