<svg width="31" height="24" viewBox="0 0 31 24" fill="none" xmlns="http://www.w3.org/2000/svg">
<path d="M0.624973 5.22802H1.75931V2.74257C1.75931 2.39723 2.03911 2.11742 2.38445 2.11742H3.4961V0.625144C3.4961 0.279803 3.7759 0 4.12124 0H14.2698C14.6151 0 14.8949 0.279803 14.8949 0.625144V2.11742H28.5825C28.9279 2.11742 29.2077 2.39723 29.2077 2.74257V5.22802H30.3496C30.6949 5.22802 30.9747 5.50782 30.9747 5.85317C30.9747 5.89854 30.9697 5.94391 30.9596 5.98425L28.7716 22.0691C28.701 22.5934 28.4716 23.0799 28.1187 23.4328C27.7709 23.7807 27.3096 23.9975 26.7676 23.9975H3.70532C3.16084 23.9975 2.68946 23.7782 2.33656 23.4278C1.98113 23.0724 1.75427 22.5833 1.69629 22.0515L0.00234966 5.91871C-0.0329407 5.57588 0.216613 5.26835 0.559434 5.23306C0.582121 5.23054 0.602287 5.23054 0.624973 5.22802ZM15.4873 8.06638C17.3627 8.06638 19.0617 8.82764 20.2918 10.0552C21.5219 11.2854 22.2807 12.9818 22.2807 14.8598C22.2807 16.7352 21.5194 18.4342 20.2918 19.6643C19.0617 20.8944 17.3652 21.6532 15.4873 21.6532C13.6118 21.6532 11.9129 20.8919 10.6827 19.6618C9.45262 18.4317 8.69387 16.7352 8.69387 14.8573C8.69387 12.9818 9.45514 11.2828 10.6827 10.0527C11.9129 8.82764 13.6118 8.06638 15.4873 8.06638ZM19.4474 10.8972C18.434 9.88384 17.0325 9.25617 15.4873 9.25617C13.9395 9.25617 12.5405 9.88384 11.5272 10.8972C10.5139 11.9105 9.88619 13.312 9.88619 14.8573C9.88619 16.405 10.5139 17.804 11.5272 18.8174C12.5405 19.8307 13.9421 20.4584 15.4873 20.4584C17.035 20.4584 18.434 19.8307 19.4474 18.8174C20.4607 17.804 21.0884 16.4025 21.0884 14.8573C21.0884 13.312 20.4632 11.9105 19.4474 10.8972ZM12.3439 15.7219C12.2834 15.6563 12.2355 15.5832 12.2027 15.5026C12.17 15.4219 12.1498 15.3362 12.1448 15.248C12.1397 15.1522 12.1549 15.0539 12.1876 14.9606C12.2204 14.8724 12.2708 14.7867 12.3389 14.7111L12.3716 14.6758C12.4372 14.6128 12.5128 14.5623 12.5935 14.5296C12.6766 14.4943 12.7624 14.4741 12.8531 14.4691H12.8556C12.9514 14.464 13.0497 14.4792 13.143 14.5119C13.2312 14.5447 13.3169 14.5951 13.39 14.6606L13.3925 14.6632C13.6421 14.9026 13.9093 15.1396 14.1765 15.3791L14.5042 15.674L17.5492 12.4878C17.6173 12.4172 17.698 12.3642 17.7837 12.3264C17.8719 12.2886 17.9677 12.2659 18.0635 12.2634C18.1643 12.2634 18.2551 12.276 18.3483 12.3138C18.434 12.3466 18.5172 12.397 18.5878 12.4651L18.6029 12.4777C18.6735 12.5457 18.7264 12.6264 18.7642 12.7096C18.8021 12.7978 18.8247 12.8936 18.8273 12.9894V13.002C18.8273 13.0953 18.8121 13.1885 18.7768 13.2742C18.7441 13.3599 18.6937 13.4431 18.6256 13.5137L15.084 17.2217C15.0159 17.2923 14.9378 17.3503 14.852 17.3881C14.7638 17.4284 14.668 17.4511 14.5722 17.4536H14.5697C14.4739 17.4561 14.3807 17.4435 14.2899 17.4108C14.2017 17.3805 14.1185 17.3301 14.0454 17.2671C13.5085 16.7705 12.8355 16.2386 12.3439 15.7219ZM2.38445 6.48083H1.31818L2.94154 21.9254C2.96674 22.1725 3.06757 22.3918 3.21882 22.5455C3.34486 22.6716 3.51375 22.7497 3.70532 22.7497H26.7701C26.9592 22.7497 27.118 22.6741 27.2415 22.5506C27.3978 22.3943 27.5011 22.1649 27.5364 21.9078L29.6337 6.48335L2.38445 6.48083ZM3.0096 3.37023V5.2255L27.9574 4.96082V3.37023H14.2698C13.9244 3.37023 13.6446 3.09043 13.6446 2.74509V1.25281H4.74639V2.74509C4.74639 3.09043 4.46659 3.37023 4.12124 3.37023H3.0096Z" fill="#FF9700" stroke="#FF9700"/>
</svg>
