<svg width="24" height="24" viewBox="0 0 24 24" fill="none" xmlns="http://www.w3.org/2000/svg">
<path d="M6.93555 0H17.0645C18.9492 0 20.6641 0.773437 21.9082 2.01562C23.1543 3.25977 23.9277 4.97656 23.9277 6.86328V17.1387C23.9277 19.0215 23.1543 20.7363 21.9121 21.9805L21.9082 21.9844C20.6621 23.2285 18.9473 24 17.0664 24H6.93555C5.04883 24 3.33203 23.2266 2.08789 21.9844L2.04102 21.9316C0.826172 20.6934 0.0722656 18.998 0.0722656 17.1367V6.86328C0.0722656 4.97461 0.84375 3.25977 2.08789 2.01562C3.33203 0.771484 5.04688 0 6.93555 0ZM17.9453 6.05859L17.959 6.08008H22.1777C22.0078 4.9707 21.4785 3.97461 20.7168 3.21094C19.7793 2.27344 18.4863 1.69141 17.0645 1.69141H15.332L17.9453 6.05859ZM15.9941 6.08008L13.3672 1.69141H7.60547L10.2637 6.08008H15.9941ZM8.29688 6.08008L5.72656 1.83398C4.78711 2.06055 3.94531 2.54688 3.2832 3.21094C2.52148 3.97266 1.99414 4.9707 1.82227 6.08008H8.29688ZM22.2363 7.77148H1.76367V17.1387C1.76367 18.5391 2.32812 19.8145 3.24023 20.748L3.2832 20.7891C4.2207 21.7266 5.51562 22.3105 6.93555 22.3105H17.0645C18.4863 22.3105 19.7793 21.7285 20.7148 20.793L20.7188 20.7891C21.6543 19.8535 22.2363 18.5605 22.2363 17.1387V7.77148ZM10.0234 10.7324L15.2637 14.1406C15.3477 14.1953 15.4238 14.2656 15.4844 14.3516C15.7227 14.6973 15.6348 15.1719 15.2891 15.4102L10.0703 18.4902C9.93945 18.5977 9.77148 18.6621 9.58594 18.6621C9.16406 18.6621 8.82227 18.3203 8.82227 17.8984V11.3574H8.82617C8.82617 11.207 8.87109 11.0547 8.96289 10.9219C9.20508 10.5762 9.67969 10.4922 10.0234 10.7324Z" fill="#000034" stroke="#000034"/>
</svg>
