<svg width="27" height="24" viewBox="0 0 27 24" fill="none" xmlns="http://www.w3.org/2000/svg">
<path d="M14.4232 4.2868C14.2742 4.44451 14.1253 4.60441 13.9413 4.79497L13.4353 5.32285L12.9096 4.81249C12.7541 4.66136 12.5964 4.50584 12.4431 4.3547C10.8178 2.75572 9.5934 1.55102 7.07227 1.51816C6.97371 1.51597 6.86857 1.51816 6.75905 1.52254C5.34845 1.57292 4.04736 2.09204 3.09673 2.97914C2.15925 3.8553 1.56128 5.09724 1.54156 6.6086C1.53937 6.70279 1.54156 6.80136 1.54594 6.90869C1.69708 11.1296 5.73614 14.8116 9.08523 17.8628C9.7314 18.452 10.3513 19.0171 10.9449 19.5888L13.4112 21.9654L16.5106 18.8901C17.01 18.395 17.5751 17.854 18.1797 17.2758C19.207 16.2901 20.3504 15.1971 21.4149 14.0953C22.1793 13.3046 22.9043 12.5095 23.5198 11.745C24.1244 10.9959 24.6194 10.2841 24.937 9.64885C25.4583 8.60623 25.6226 7.56361 25.5109 6.58889C25.4014 5.62731 25.0224 4.72926 24.4551 3.96262C23.8791 3.18504 23.1124 2.54107 22.2341 2.1008C21.2221 1.59701 20.0634 1.35826 18.8784 1.49407C16.8348 1.73063 15.7462 2.88496 14.4232 4.2868ZM13.3959 3.25294C14.9073 1.65177 16.1624 0.339735 18.712 0.0484143C20.1839 -0.120245 21.6252 0.173266 22.8803 0.804096C23.9645 1.34731 24.9107 2.14023 25.6204 3.09742C26.3367 4.06557 26.8164 5.20238 26.9565 6.42461C27.0989 7.66437 26.893 8.98517 26.2337 10.2994C25.8614 11.0419 25.3094 11.8392 24.6501 12.6562C24.0039 13.4579 23.2504 14.2859 22.4597 15.1029C21.3755 16.2266 20.2233 17.3305 19.1851 18.325C18.5783 18.9054 18.011 19.4486 17.5335 19.9217L13.9282 23.4986L13.4222 24.0002L12.9096 23.5074L9.93072 20.638C9.38532 20.1145 8.75449 19.5384 8.09956 18.9404C4.54896 15.7009 0.262382 11.7954 0.0893417 6.95907C0.0849609 6.84079 0.0849609 6.71812 0.0849609 6.59108C0.111246 4.6504 0.88664 3.04705 2.1023 1.91243C3.30701 0.788763 4.94322 0.131649 6.70429 0.0681277C6.82476 0.063747 6.9518 0.0615566 7.08542 0.063747C10.1607 0.105364 11.5669 1.45245 13.3959 3.25294Z" fill="#000034" stroke="#000034"/>
</svg>
