<svg width="27" height="24" viewBox="0 0 27 24" fill="none" xmlns="http://www.w3.org/2000/svg">
<path fill-rule="evenodd" clip-rule="evenodd" d="M24.6383 23.5963C24.6383 23.818 24.4583 24.0001 24.2345 24.0001H2.61761C2.39597 24.0001 2.21384 23.8201 2.21384 23.5963V11.3385C1.7618 11.5118 1.34267 11.514 0.991567 11.3977C0.717269 11.3056 0.486858 11.141 0.317891 10.9259C0.148923 10.7131 0.0413979 10.4519 0.00848214 10.1667C-0.0397944 9.72122 0.0940632 9.21651 0.471498 8.74471C0.491247 8.72058 0.513191 8.69863 0.537329 8.67888L13.177 0.105416C13.3196 -0.026247 13.5391 -0.0394133 13.6971 0.0834723L26.3587 8.63938C26.3762 8.65255 26.3916 8.66791 26.4069 8.68327C26.916 9.23187 27.0433 9.83971 26.9204 10.3554C26.859 10.6077 26.7383 10.8382 26.5715 11.0247C26.4048 11.2134 26.1919 11.3582 25.9483 11.446C25.5621 11.5864 25.1057 11.5799 24.6405 11.3604C24.6383 14.7837 24.6383 20.1753 24.6383 23.5963ZM9.94686 7.97668H17.015V12.7363H9.94686V7.97668ZM12.3497 9.26917C12.5538 9.26917 12.7206 9.43595 12.7206 9.64002C12.7206 9.8441 12.5538 10.0109 12.3497 10.0109C12.1456 10.0109 11.9789 9.8441 11.9789 9.64002C11.9789 9.43375 12.1434 9.26917 12.3497 9.26917ZM13.9099 10.8601L14.7438 9.57858L15.5316 11.5711H11.6694V11.3231L11.9789 11.3078L12.2883 10.5507L12.534 11.0927H12.9971L13.3986 10.057L13.9099 10.8601ZM10.3726 8.46603H16.5937V12.247H10.3726V8.46603ZM13.3701 16.3878C13.3789 16.39 13.3898 16.3878 13.3986 16.379C13.8726 16.0081 14.5682 16.1639 14.8864 16.9407H14.8798C14.2522 17.474 13.8024 18.0533 13.64 18.7006H12.7315L13.3701 16.3878ZM16.5344 17.869C16.6112 18.5273 15.9353 19.0956 15.3407 18.9157C15.2573 19.0605 15.1936 19.2427 15.1432 19.4621C15.0312 19.9734 15.0642 19.8176 15.1124 20.3135C15.1783 20.974 15.1081 21.4239 14.6823 21.617V21.8715H6.08474V21.617C5.75338 21.4985 5.61075 21.1737 5.66122 20.6405C5.77094 19.6355 5.70291 19.3217 5.45056 18.942C5.00729 18.9574 4.68691 18.8521 4.48722 18.6282C4.07907 18.174 4.20415 17.5091 4.71325 17.1909C4.81858 17.1251 4.94146 17.0746 5.0841 17.0439C6.1769 16.8135 6.78036 17.9326 7.07002 18.8148L9.93808 18.8916C10.1334 18.9179 10.2585 19.0057 10.3418 19.1242C10.4186 19.0079 10.5306 18.9201 10.7017 18.8806C11.5948 18.8411 12.2334 18.9596 12.8851 18.9596H13.6444C13.8002 18.9596 13.8814 18.8916 13.9077 18.7665C14.1008 18.1784 14.7855 16.9978 15.503 17.0197C15.9441 17.0351 16.4247 17.3379 16.5344 17.869ZM5.95527 16.8705C6.24493 16.2254 6.69697 16.0652 7.31359 16.2802L7.9741 18.5514H7.26093C6.92958 17.8756 6.71014 17.1887 5.95527 16.8705ZM7.59228 16.2978C7.60106 16.2934 7.60764 16.2868 7.61203 16.2758C7.85561 15.7141 8.52709 15.5561 9.07569 15.7975C9.07569 15.7953 9.07788 15.7953 9.07788 15.7953L9.2271 18.6875H8.27693L7.59228 16.2978ZM9.36973 15.736C9.54748 14.9965 11.2328 15.1479 11.3886 15.657C11.4105 15.6548 11.213 18.3868 11.1999 18.6897H10.9497C10.5547 18.6897 10.2058 18.6897 9.81519 18.6897H9.4992L9.37632 15.736H9.36973ZM11.608 15.8611C11.6124 15.8611 11.619 15.8589 11.6256 15.8567C12.2356 15.5319 13.0848 15.7689 13.166 16.1925L13.1243 16.2078L12.455 18.6875H11.4654L11.608 15.8611ZM20.3702 17.0944V21.121H21.1821C21.3072 21.121 21.4081 21.2681 21.4081 21.3932C21.4081 21.5182 21.3072 21.6653 21.1821 21.6653H18.9329C18.8078 21.6653 18.7068 21.5182 18.7068 21.3932C18.7068 21.2681 18.8078 21.121 18.9329 21.121H19.7448V17.0944H20.3702ZM18.8912 14.0442H21.2172L21.8997 16.7367H18.2131L18.8912 14.0442ZM23.6245 22.9841V10.8886C23.6245 10.8623 23.6267 10.836 23.631 10.8118L13.5215 4.07725L3.21667 10.814C3.22545 10.8469 3.22984 10.882 3.22984 10.9172V22.9841C10.028 22.9841 16.8263 22.9841 23.6245 22.9841Z" fill="#005F73" stroke="#005F73"/>
</svg>
