<svg width="32" height="24" viewBox="0 0 32 24" fill="none" xmlns="http://www.w3.org/2000/svg">
<path d="M2.10608 3.83904H26.5169C26.8964 3.83904 27.2354 3.99312 27.4819 4.23942C27.728 4.48571 27.8823 4.83489 27.8823 5.20421V22.6346C27.8823 23.0143 27.728 23.3531 27.4819 23.5996C27.4616 23.62 27.4407 23.6406 27.4101 23.661C27.1738 23.8767 26.8559 23.9998 26.5067 23.9998H2.09589C1.71614 23.9998 1.37714 23.8459 1.13085 23.5996C0.884557 23.3533 0.730469 23.0044 0.730469 22.6348V5.20446C0.730469 4.8247 0.884557 4.48596 1.13085 4.23967C1.37714 3.99337 1.72633 3.83928 2.09589 3.83928H2.10608V3.83904ZM7.74348 8.57154C8.82557 8.57154 9.70238 9.44835 9.70238 10.5304C9.70238 11.6125 8.82557 12.4896 7.74348 12.4896C6.66138 12.4896 5.78457 11.6125 5.78457 10.5304C5.78432 9.4486 6.66138 8.57154 7.74348 8.57154ZM15.9874 16.9785L19.9058 10.2041L24.0681 20.7326L4.64183 20.7323V19.4266L6.27467 19.3453L7.90676 15.3457L8.72243 18.2028H11.1717L13.2934 12.7342L15.9874 16.9785ZM6.17103 1.62166C5.71945 1.62166 5.36008 1.25234 5.36008 0.810703C5.36008 0.359125 5.72964 0 6.17103 0H30.4588C30.9102 0 31.2695 0.369563 31.2695 0.810952V17.9334C31.2695 18.3852 30.9002 18.7446 30.4588 18.7446C30.007 18.7446 29.6476 18.375 29.6476 17.9334V1.63209H6.17103V1.62166ZM26.2602 5.46119H2.36256V22.3679H26.2599L26.2602 5.46119Z" fill="#000034"/>
</svg>
