<svg width="25" height="24" viewBox="0 0 25 24" fill="none" xmlns="http://www.w3.org/2000/svg">
<path d="M1.51213 0H23.5738C24.1103 0 24.543 0.433594 24.543 0.966797V23.0312C24.543 23.5664 24.1083 23.998 23.5738 23.998C23.3056 23.998 23.0628 23.8887 22.8866 23.7129L12.5175 14.8027L2.14454 23.7617C1.74121 24.1094 1.13034 24.0664 0.779875 23.6641C0.621285 23.4824 0.544927 23.2559 0.544927 23.0332H0.542969V0.966797C0.542969 0.433594 0.977624 0 1.51213 0ZM22.6046 1.93555H2.48325V20.9199L11.8753 12.8066C12.2317 12.4902 12.7779 12.4785 13.1499 12.7988L22.6066 20.9258V1.93555H22.6046Z" fill="#000034"/>
</svg>
