<svg width="19" height="24" viewBox="0 0 19 24" fill="none" xmlns="http://www.w3.org/2000/svg">
<path fill-rule="evenodd" clip-rule="evenodd" d="M13.3808 20.758C12.289 21.9553 11.0175 23.0276 9.58975 23.8948C9.41397 24.0237 9.17569 24.0393 8.98038 23.9143C6.871 22.5725 5.09952 20.9612 3.70694 19.2092C1.78506 16.7991 0.576079 14.1272 0.162017 11.553C-0.259858 8.94359 0.134673 6.43187 1.4335 4.39086C1.94522 3.58422 2.59952 2.84984 3.39639 2.21508C5.22842 0.756092 7.32022 -0.0153923 9.40616 0.000232728C11.414 0.0158577 13.3964 0.763905 15.1093 2.32836C15.7108 2.87523 16.2167 3.50219 16.6308 4.18187C18.0273 6.48266 18.328 9.41625 17.7148 12.3889C17.1093 15.3264 15.6054 18.3108 13.3808 20.7522V20.758ZM9.00772 4.64086C11.4843 4.64086 13.4901 6.64867 13.4901 9.12328C13.4901 11.5998 11.4823 13.6057 9.00772 13.6057C6.53116 13.6057 4.5253 11.5998 4.5253 9.12328C4.52334 6.64672 6.53116 4.64086 9.00772 4.64086Z" fill="#005F73"/>
</svg>
