<svg width="26" height="24" viewBox="0 0 26 24" fill="none" xmlns="http://www.w3.org/2000/svg">
<path fill-rule="evenodd" clip-rule="evenodd" d="M16.5466 16.9012C15.6584 17.8751 14.6233 18.749 13.4595 19.4554C13.3166 19.5595 13.1227 19.5738 12.9634 19.4717C11.2464 18.3794 9.80289 17.0666 8.66975 15.6415C7.10582 13.6795 6.11969 11.503 5.78281 9.40826C5.43981 7.28286 5.76035 5.23914 6.81794 3.57721C7.23445 2.91978 7.76733 2.32157 8.41658 1.80503C9.90905 0.614723 11.6139 -0.0120739 13.3105 0.000176186C14.9459 0.0124263 16.5588 0.62289 17.9533 1.89486C18.4433 2.33995 18.8557 2.85037 19.1926 3.40366C20.3298 5.27589 20.5748 7.66466 20.0746 10.0861C19.5826 12.4769 18.3575 14.9086 16.5466 16.8951V16.9012ZM5.6256 15.2189C6.02985 15.2189 6.35856 15.5476 6.35856 15.9519C6.35856 16.3561 6.02985 16.6848 5.6256 16.6848H4.2495L2.43649 22.5383H23.5108L21.5426 16.6848H20.4054C20.0011 16.6848 19.6724 16.3561 19.6724 15.9519C19.6724 15.5476 20.0011 15.2189 20.4054 15.2189H22.59L25.5422 24.0002H0.456055L3.17558 15.2189H5.6256ZM12.9879 3.77933C15.0051 3.77933 16.6384 5.41472 16.6384 7.42782C16.6384 9.44501 15.0031 11.0784 12.9879 11.0784C10.9707 11.0784 9.33942 9.44501 9.33942 7.42782C9.33534 5.41268 10.9707 3.77933 12.9879 3.77933Z" fill="#000034"/>
</svg>
