<svg width="62" height="40" viewBox="0 0 62 40" fill="none" xmlns="http://www.w3.org/2000/svg">
<mask id="path-1-inside-1_2014_65412" fill="white">
<path d="M0.415039 0H61.245V40H0.415039V0Z"/>
</mask>
<path d="M60.245 0V40H62.245V0H60.245ZM1.41504 40V0H-0.584961V40H1.41504Z" fill="#99A4CC" mask="url(#path-1-inside-1_2014_65412)"/>
<g clip-path="url(#clip0_2014_65412)">
<path fill-rule="evenodd" clip-rule="evenodd" d="M34.3766 24.9012C33.4885 25.8751 32.4534 26.749 31.2896 27.4554C31.1467 27.5595 30.9527 27.5738 30.7935 27.4717C29.0764 26.3794 27.633 25.0666 26.4998 23.6415C24.9359 21.6795 23.9498 19.503 23.6129 17.4083C23.2699 15.2829 23.5904 13.2391 24.648 11.5772C25.0645 10.9198 25.5974 10.3216 26.2467 9.80503C27.7391 8.61472 29.4439 7.98793 31.1406 8.00018C32.776 8.01243 34.3889 8.62289 35.7834 9.89486C36.2734 10.3399 36.6858 10.8504 37.0227 11.4037C38.1599 13.2759 38.4049 15.6647 37.9047 18.0861C37.4126 20.4769 36.1876 22.9086 34.3766 24.8951V24.9012ZM23.4557 23.2189C23.8599 23.2189 24.1886 23.5476 24.1886 23.9519C24.1886 24.3561 23.8599 24.6848 23.4557 24.6848H22.0796L20.2666 30.5383H41.3408L39.3726 24.6848H38.2354C37.8312 24.6848 37.5025 24.3561 37.5025 23.9519C37.5025 23.5476 37.8312 23.2189 38.2354 23.2189H40.42L43.3723 32.0002H18.2861L21.0057 23.2189H23.4557ZM30.818 11.7793C32.8352 11.7793 34.4685 13.4147 34.4685 15.4278C34.4685 17.445 32.8331 19.0784 30.818 19.0784C28.8008 19.0784 27.1695 17.445 27.1695 15.4278C27.1654 13.4127 28.8008 11.7793 30.818 11.7793Z" fill="#000034"/>
</g>
<defs>
<clipPath id="clip0_2014_65412">
<rect width="25.0882" height="24" fill="white" transform="translate(18.2861 8)"/>
</clipPath>
</defs>
</svg>
