<svg width="62" height="40" viewBox="0 0 62 40" fill="none" xmlns="http://www.w3.org/2000/svg">
<mask id="path-1-inside-1_2014_65393" fill="white">
<path d="M0.924805 0H61.7548V40H0.924805V0Z"/>
</mask>
<path d="M0.924805 0H61.7548V40H0.924805V0Z" fill="#C9D1EB" fill-opacity="0.72"/>
<path d="M60.7548 0V40H62.7548V0H60.7548ZM1.9248 40V0H-0.0751953V40H1.9248Z" fill="#99A4CC" mask="url(#path-1-inside-1_2014_65393)"/>
<g clip-path="url(#clip0_2014_65393)">
<path d="M17.4459 11.839H41.8567C42.2362 11.839 42.5752 11.9931 42.8218 12.2394C43.0678 12.4857 43.2222 12.8349 43.2222 13.2042V30.6346C43.2222 31.0143 43.0678 31.3531 42.8218 31.5996C42.8014 31.62 42.7805 31.6406 42.75 31.661C42.5136 31.8767 42.1957 31.9998 41.8466 31.9998H17.4357C17.056 31.9998 16.717 31.8459 16.4707 31.5996C16.2244 31.3533 16.0703 31.0044 16.0703 30.6348V13.2045C16.0703 12.8247 16.2244 12.486 16.4707 12.2397C16.717 11.9934 17.0662 11.8393 17.4357 11.8393H17.4459V11.839ZM23.0833 16.5715C24.1654 16.5715 25.0422 17.4483 25.0422 18.5304C25.0422 19.6125 24.1654 20.4896 23.0833 20.4896C22.0012 20.4896 21.1244 19.6125 21.1244 18.5304C21.1242 17.4486 22.0012 16.5715 23.0833 16.5715ZM31.3273 24.9785L35.2456 18.2041L39.408 28.7326L19.9817 28.7323V27.4266L21.6145 27.3453L23.2466 23.3457L24.0623 26.2028H26.5115L28.6332 20.7342L31.3273 24.9785ZM21.5109 9.62166C21.0593 9.62166 20.6999 9.25234 20.6999 8.8107C20.6999 8.35913 21.0695 8 21.5109 8H45.7987C46.25 8 46.6094 8.36956 46.6094 8.81095V25.9334C46.6094 26.3852 46.2401 26.7446 45.7987 26.7446C45.3468 26.7446 44.9875 26.375 44.9875 25.9334V9.63209H21.5109V9.62166ZM41.6 13.4612H17.7024V30.3679H41.5998L41.6 13.4612Z" fill="#000034"/>
</g>
<defs>
<clipPath id="clip0_2014_65393">
<rect width="30.5391" height="24" fill="white" transform="translate(16.0703 8)"/>
</clipPath>
</defs>
</svg>
