<svg width="25" height="25" viewBox="0 0 25 25" fill="none" xmlns="http://www.w3.org/2000/svg">
<path d="M17.574 4.12819C18.3255 4.12819 19.0059 4.43305 19.4985 4.92538C19.9908 5.41792 20.2956 6.09852 20.2956 6.85002C20.2956 7.60151 19.9908 8.28192 19.4985 8.77446C19.0059 9.26699 18.3253 9.57165 17.574 9.57165C16.8223 9.57165 16.1419 9.26699 15.6496 8.77446C15.157 8.28192 14.8524 7.60151 14.8524 6.85002C14.8524 6.09852 15.157 5.41792 15.6496 4.92538C16.1419 4.43285 16.8223 4.12819 17.574 4.12819ZM23.8768 11.574L11.1168 24.334C10.8957 24.5553 10.537 24.5553 10.3159 24.334L0.208774 14.2267C-0.0122997 14.0058 -0.0122997 13.6473 0.208774 13.426L12.9688 0.666001C13.0793 0.555464 13.2242 0.5 13.3691 0.5H23.1438C23.4567 0.5 23.7102 0.753493 23.7102 1.06636C23.7102 1.07573 23.7098 1.0853 23.7094 1.09467L24.0402 11.1557C24.0453 11.3178 23.9815 11.466 23.8752 11.5724L23.8768 11.574ZM10.7162 23.1325L22.9038 10.9448L22.5976 1.63271H13.6039L1.41023 13.8265L10.7162 23.1325ZM18.8389 5.5849C18.5153 5.26129 18.0679 5.06092 17.5738 5.06092C17.0797 5.06092 16.6325 5.2611 16.3087 5.5849C15.9849 5.9085 15.7845 6.35592 15.7845 6.85002C15.7845 7.34411 15.9847 7.79134 16.3087 8.11514C16.6323 8.43894 17.0795 8.63912 17.5738 8.63912C18.0677 8.63912 18.5151 8.43894 18.8389 8.11514C19.1627 7.79134 19.3629 7.34411 19.3629 6.85002C19.3629 6.35592 19.1625 5.9085 18.8389 5.5849Z" fill="#1C2137" stroke="#1C2137" stroke-width="2"/>
</svg>
