<svg width="35" height="25" viewBox="0 0 35 25" fill="none" xmlns="http://www.w3.org/2000/svg">
<path fill-rule="evenodd" clip-rule="evenodd" d="M12.7551 4.85939C12.7389 4.83064 12.7285 4.79898 12.7245 4.76621C12.7205 4.73343 12.723 4.7002 12.7319 4.6684C12.7407 4.6366 12.7558 4.60686 12.7761 4.58087C12.7965 4.55488 12.8218 4.53316 12.8505 4.51694C12.8793 4.50072 12.9109 4.49032 12.9437 4.48634C12.9765 4.48236 13.0097 4.48487 13.0415 4.49373C13.0733 4.50259 13.1031 4.51763 13.1291 4.53799C13.155 4.55835 13.1768 4.58362 13.193 4.61238L13.5074 5.17378C13.5398 5.22999 13.5485 5.29676 13.5316 5.3594C13.5148 5.42205 13.4738 5.47543 13.4175 5.50782C13.3613 5.5402 13.2946 5.54893 13.2319 5.53208C13.1693 5.51524 13.1159 5.4742 13.0835 5.41799L12.7691 4.87343L12.7551 4.85939ZM26.6049 24.5085L23.6182 14.5352H24.393L28.9123 24.4973H26.6049V24.5085ZM28.9123 14.5352V10.5885H25.6674C25.1228 10.639 25.0133 10.2068 25.2463 9.85027L27.3207 7.41659L27.2618 7.35764H26.1389C25.7347 7.41659 25.5775 6.9815 25.8302 6.67273L28.0758 4.04255H27.4246C27.0175 4.04255 26.9165 3.67764 27.1775 3.32115L29.2154 0.9015C29.3558 0.735886 29.4961 0.494482 29.746 0.500096C29.9958 0.50571 30.08 0.702201 30.2035 0.848166L32.3705 3.37448C32.4262 3.43887 32.4611 3.51863 32.4706 3.60325C32.48 3.68787 32.4636 3.77336 32.4235 3.84846C32.3834 3.92355 32.3214 3.98471 32.2458 4.02388C32.1702 4.06304 32.0845 4.07836 32 4.06782H31.4105L33.6309 6.67554C33.6892 6.72781 33.7322 6.79483 33.7556 6.86954C33.779 6.94426 33.7818 7.02389 33.7636 7.10005C33.7455 7.17621 33.7072 7.24607 33.6527 7.30228C33.5982 7.35848 33.5296 7.39894 33.454 7.41939H32.1628L34.0997 9.69027L34.313 9.9401C34.3549 9.998 34.3811 10.0658 34.389 10.1369C34.3968 10.208 34.3861 10.2798 34.3577 10.3455C34.3294 10.4112 34.2846 10.4683 34.2275 10.5114C34.1705 10.5545 34.1032 10.5821 34.0323 10.5913H30.5544V14.5352H34.4842V16.5562H26.9698L26.1277 14.5352H28.9123ZM4.68211 13.1906V14.1899H4.27228V13.8727H4.36491V13.1906H4.68211ZM2.31018 12.0089C2.17575 12.0479 2.03731 12.0714 1.89754 12.079C1.5948 12.0988 1.29298 12.0285 1.03018 11.8769C0.768973 11.7214 0.562131 11.4891 0.437895 11.2117C0.215325 10.6585 0.205327 10.0426 0.409825 9.48255C0.120071 9.08569 -0.013788 8.5962 0.0336842 8.10711C0.0829425 7.74627 0.245058 7.41025 0.496842 7.14711C0.765634 6.86961 1.10242 6.66734 1.47368 6.56045C2.20897 6.362 2.99111 6.43473 3.67719 6.76536C3.7614 6.69799 3.84561 6.63904 3.92702 6.5829C4.3546 6.27437 4.88306 6.139 5.40632 6.20396C5.98271 6.32092 6.49499 6.6481 6.84351 7.12185C6.94357 7.23933 7.03727 7.36207 7.12421 7.48957C7.59054 7.46197 8.05305 7.58819 8.4407 7.84887C8.64569 7.99339 8.80302 8.19566 8.89263 8.42992C8.97584 8.66897 8.97584 8.92912 8.89263 9.16817C8.73079 9.58851 8.43479 9.94371 8.05053 10.1787C8.0245 10.5504 7.91922 10.9121 7.74175 11.2397C7.60873 11.4829 7.40383 11.6789 7.15509 11.8011C6.90483 11.915 6.62034 11.928 6.3607 11.8376C6.27428 11.81 6.19063 11.7743 6.11088 11.731L5.94526 12.1211C5.53263 13.0783 5.38386 13.4208 5.33614 14.5296H9.07228L8.23018 16.5506H0V14.5352H3.29544C3.2814 13.4797 3.18877 13.3422 2.68912 12.5927C2.58246 12.4299 2.45895 12.2419 2.31018 12.0033V12.0089ZM2.61053 11.8966L2.95298 12.4187C3.51439 13.244 3.5986 13.3871 3.61263 14.538H5.01614C5.06667 13.3619 5.21825 13.0082 5.65053 12.0117L5.8386 11.5738C5.8021 11.5457 5.76561 11.5176 5.73193 11.4868C5.66697 11.5558 5.59758 11.6205 5.52421 11.6804C5.25572 11.9253 4.90513 12.0605 4.54175 12.0594C4.18049 12.0332 3.83982 11.8812 3.57895 11.6299C3.50035 11.5597 3.42175 11.484 3.34316 11.3997C3.12757 11.6033 2.88008 11.7702 2.61053 11.8938V11.8966ZM3.56491 11.964L4.21053 13.0306L3.92982 13.1906L3.28421 12.1268L3.56491 11.964ZM11.2281 24.5001L13.0975 14.5352H12.174L9.19298 24.5001H11.2281ZM8.21053 24.5001L11.1944 14.5352H10.4196L5.90877 24.5001H8.21053ZM17.8835 24.5001V14.5352H18.807L19.753 24.5001H17.8835ZM20.7719 24.5001L19.7418 14.5352H20.6793L22.6442 24.5057L20.7719 24.5001ZM23.5789 24.5001L21.7151 14.5352H22.6358L25.6196 24.5001H23.5789ZM16.9235 24.5001V14.5352H16L15.0568 24.5001H16.9235ZM14.0351 24.5001L15.0681 14.5352H14.1305L12.1656 24.5057L14.0351 24.5001ZM0 21.4629H6.00421L4.62596 24.5001H0V21.4629ZM29.193 21.4629H34.5011V24.5001H30.5712L29.193 21.4629ZM0 17.9766H7.57895L6.64421 20.0397H0V17.9766ZM27.6126 17.9766H34.4926V20.0397H28.5446L27.6126 17.9766ZM14.7144 5.67062C15.2221 5.67133 15.7139 5.84801 16.106 6.17059C16.498 6.49316 16.7662 6.94168 16.8647 7.43975C16.9632 7.93782 16.886 8.45464 16.6463 8.9022C16.4066 9.34975 16.0191 9.70036 15.5499 9.89432C15.0807 10.0883 14.5587 10.1136 14.073 9.96591C13.5872 9.81826 13.1676 9.50677 12.8857 9.0845C12.6038 8.66223 12.477 8.15529 12.5269 7.65003C12.5768 7.14476 12.8003 6.67242 13.1593 6.31343C13.3636 6.10939 13.6061 5.94761 13.8729 5.83731C14.1397 5.72702 14.4257 5.67038 14.7144 5.67062ZM15.9354 6.64466C15.694 6.40308 15.3863 6.23855 15.0514 6.17188C14.7164 6.10521 14.3692 6.1394 14.0537 6.27012C13.7381 6.40084 13.4685 6.62222 13.2788 6.90624C13.0891 7.19027 12.9879 7.52417 12.9881 7.86571C12.9881 8.32356 13.1699 8.76265 13.4937 9.0864C13.8174 9.41015 14.2565 9.59203 14.7144 9.59203C15.1722 9.59203 15.6113 9.41015 15.9351 9.0864C16.2588 8.76265 16.4407 8.32356 16.4407 7.86571C16.442 7.63879 16.398 7.41389 16.3113 7.20421C16.2245 6.99452 16.0967 6.80429 15.9354 6.64466ZM14.5319 4.28115C14.5282 4.24669 14.5318 4.21184 14.5425 4.17886C14.5532 4.14589 14.5706 4.11552 14.5938 4.08974C14.617 4.06397 14.6453 4.04335 14.677 4.02924C14.7086 4.01513 14.7429 4.00784 14.7775 4.00784C14.8122 4.00784 14.8465 4.01513 14.8781 4.02924C14.9098 4.04335 14.9381 4.06397 14.9613 4.08974C14.9844 4.11552 15.0019 4.14589 15.0126 4.17886C15.0232 4.21184 15.0268 4.24669 15.0232 4.28115V4.91273C15.0268 4.94719 15.0232 4.98204 15.0126 5.01502C15.0019 5.04799 14.9844 5.07835 14.9613 5.10413C14.9381 5.12991 14.9098 5.15052 14.8781 5.16464C14.8465 5.17875 14.8122 5.18604 14.7775 5.18604C14.7429 5.18604 14.7086 5.17875 14.677 5.16464C14.6453 5.15052 14.617 5.12991 14.5938 5.10413C14.5706 5.07835 14.5532 5.04799 14.5425 5.01502C14.5318 4.98204 14.5282 4.94719 14.5319 4.91273V4.28115ZM16.3509 4.6629C16.3837 4.60718 16.4371 4.56656 16.4995 4.54977C16.562 4.53297 16.6286 4.54134 16.6849 4.57308C16.7128 4.58908 16.7372 4.61042 16.7568 4.63588C16.7764 4.66134 16.7908 4.69042 16.7992 4.72145C16.8075 4.75248 16.8096 4.78486 16.8055 4.81672C16.8013 4.84858 16.7908 4.8793 16.7747 4.90711L16.4491 5.45448C16.4136 5.5044 16.3607 5.53932 16.3009 5.55245C16.241 5.56559 16.1784 5.556 16.1252 5.52556C16.072 5.49512 16.0321 5.44599 16.0131 5.38772C15.9941 5.32946 15.9974 5.26621 16.0225 5.21027L16.3396 4.64887L16.3509 4.6629ZM17.7347 5.9036C17.7626 5.88752 17.7933 5.87708 17.8251 5.87289C17.857 5.8687 17.8894 5.87084 17.9204 5.87918C17.9514 5.88753 17.9805 5.90192 18.006 5.92152C18.0314 5.94112 18.0528 5.96556 18.0688 5.99343C18.1014 6.05004 18.1103 6.11727 18.0934 6.1804C18.0766 6.24353 18.0354 6.29742 17.9789 6.33027L17.4175 6.64466C17.3897 6.66069 17.359 6.67109 17.3271 6.67525C17.2953 6.67942 17.2629 6.67727 17.2319 6.66893C17.1693 6.65208 17.1159 6.61104 17.0835 6.55483C17.0511 6.49863 17.0424 6.43186 17.0592 6.36921C17.0761 6.30657 17.1171 6.25318 17.1733 6.2208L17.7347 5.9036ZM18.313 7.67203C18.3785 7.67203 18.4413 7.69805 18.4876 7.74438C18.534 7.7907 18.56 7.85353 18.56 7.91904C18.56 7.98456 18.534 8.04739 18.4876 8.09371C18.4413 8.14004 18.3785 8.16606 18.313 8.16606H17.6842C17.6187 8.16606 17.5559 8.14004 17.5095 8.09371C17.4632 8.04739 17.4372 7.98456 17.4372 7.91904C17.4372 7.85353 17.4632 7.7907 17.5095 7.74438C17.5559 7.69805 17.6187 7.67203 17.6842 7.67203H18.313ZM17.9172 9.48255C17.9719 9.51505 18.0119 9.56739 18.0289 9.62866C18.046 9.68993 18.0387 9.75542 18.0087 9.81149C17.9787 9.86755 17.9282 9.90988 17.8678 9.92966C17.8073 9.94943 17.7416 9.94512 17.6842 9.91764L17.1228 9.60045C17.0666 9.56769 17.0257 9.51395 17.0091 9.45104C16.9925 9.38813 17.0016 9.32122 17.0344 9.26501C17.0671 9.2088 17.1209 9.16791 17.1838 9.15133C17.2467 9.13474 17.3136 9.14383 17.3698 9.17659L17.9172 9.48255ZM16.6765 10.8861C16.6926 10.9139 16.703 10.9446 16.7072 10.9765C16.7114 11.0083 16.7093 11.0407 16.7009 11.0717C16.6926 11.1028 16.6782 11.1318 16.6586 11.1573C16.639 11.1828 16.6145 11.2041 16.5867 11.2201C16.5589 11.2366 16.5282 11.2473 16.4963 11.2517C16.4643 11.2561 16.4318 11.254 16.4007 11.2457C16.3696 11.2373 16.3404 11.2228 16.315 11.203C16.2896 11.1831 16.2684 11.1584 16.2526 11.1303L15.9354 10.5857C15.9194 10.5579 15.9089 10.5272 15.9047 10.4953C15.9005 10.4635 15.9027 10.4311 15.911 10.4C15.9194 10.369 15.9338 10.3399 15.9534 10.3145C15.973 10.289 15.9974 10.2677 16.0253 10.2517C16.0529 10.2348 16.0836 10.2237 16.1157 10.2191C16.1477 10.2145 16.1803 10.2165 16.2116 10.2249C16.2428 10.2333 16.272 10.248 16.2974 10.268C16.3228 10.2881 16.3439 10.3131 16.3593 10.3415L16.6765 10.8861ZM14.9109 11.4475C14.9109 11.513 14.8849 11.5758 14.8385 11.6221C14.7922 11.6685 14.7294 11.6945 14.6639 11.6945C14.5983 11.6945 14.5355 11.6685 14.4892 11.6221C14.4429 11.5758 14.4168 11.513 14.4168 11.4475V10.8243C14.4168 10.7588 14.4429 10.696 14.4892 10.6496C14.5355 10.6033 14.5983 10.5773 14.6639 10.5773C14.7294 10.5773 14.7922 10.6033 14.8385 10.6496C14.8849 10.696 14.9109 10.7588 14.9109 10.8243V11.4475ZM13.0919 11.0629C13.0762 11.091 13.055 11.1157 13.0296 11.1356C13.0043 11.1555 12.9752 11.1702 12.9442 11.1788C12.9131 11.1874 12.8807 11.1898 12.8487 11.1858C12.8168 11.1818 12.7859 11.1715 12.7579 11.1555C12.7297 11.1395 12.7049 11.1181 12.685 11.0925C12.6651 11.0669 12.6504 11.0376 12.6418 11.0063C12.6332 10.975 12.6309 10.9424 12.6349 10.9102C12.6389 10.878 12.6492 10.8469 12.6653 10.8187L12.9825 10.2741C13.0148 10.2179 13.0682 10.1769 13.1309 10.16C13.1935 10.1432 13.2603 10.1519 13.3165 10.1843C13.3727 10.2167 13.4137 10.2701 13.4306 10.3327C13.4474 10.3954 13.4387 10.4621 13.4063 10.5183L13.0919 11.0629ZM11.7081 9.8222C11.6802 9.83824 11.6495 9.84863 11.6177 9.8528C11.5858 9.85696 11.5535 9.85481 11.5224 9.84647C11.4914 9.83813 11.4624 9.82376 11.4369 9.80418C11.4114 9.78461 11.3901 9.76021 11.374 9.73238C11.358 9.70455 11.3476 9.67383 11.3434 9.64198C11.3393 9.61013 11.3414 9.57777 11.3498 9.54676C11.3581 9.51574 11.3725 9.48667 11.3921 9.4612C11.4116 9.43574 11.436 9.41438 11.4639 9.39834L12.0084 9.08396C12.0646 9.05157 12.1314 9.04284 12.194 9.05969C12.2567 9.07653 12.3101 9.11757 12.3425 9.17378C12.3748 9.22999 12.3836 9.29676 12.3667 9.3594C12.3499 9.42204 12.3088 9.47543 12.2526 9.50782L11.7081 9.8222ZM11.1298 8.05659C11.0954 8.06028 11.0605 8.05667 11.0275 8.04601C10.9946 8.03535 10.9642 8.01787 10.9384 7.9947C10.9126 7.97154 10.892 7.94321 10.8779 7.91155C10.8638 7.8799 10.8565 7.84563 10.8565 7.81097C10.8565 7.77632 10.8638 7.74205 10.8779 7.71039C10.892 7.67874 10.9126 7.65041 10.9384 7.62724C10.9642 7.60408 10.9946 7.5866 11.0275 7.57594C11.0605 7.56527 11.0954 7.56167 11.1298 7.56536H11.7614C11.822 7.57185 11.8781 7.60052 11.9188 7.64586C11.9596 7.69121 11.9821 7.75001 11.9821 7.81097C11.9821 7.87193 11.9596 7.93074 11.9188 7.97608C11.8781 8.02143 11.822 8.0501 11.7614 8.05659H11.1298ZM11.5088 6.24325C11.4752 6.23057 11.4448 6.21063 11.4198 6.18487C11.3948 6.1591 11.3758 6.12814 11.3641 6.09419C11.3524 6.06024 11.3484 6.02413 11.3523 5.98843C11.3561 5.95274 11.3678 5.91834 11.3865 5.88768C11.4052 5.85703 11.4304 5.83087 11.4604 5.81107C11.4903 5.79127 11.5243 5.77832 11.5598 5.77314C11.5953 5.76796 11.6316 5.77068 11.6659 5.7811C11.7003 5.79152 11.7319 5.80939 11.7586 5.83343L12.3032 6.14782C12.3403 6.1861 12.364 6.23536 12.3708 6.28824C12.3776 6.34113 12.3671 6.3948 12.3409 6.44123C12.3147 6.48766 12.2742 6.52437 12.2254 6.54585C12.1766 6.56734 12.1221 6.57246 12.0702 6.56045L11.5088 6.24325Z" fill="#005F73"/>
</svg>
