<svg width="62" height="40" viewBox="0 0 62 40" fill="none" xmlns="http://www.w3.org/2000/svg">
<mask id="path-1-inside-1_2014_65400" fill="white">
<path d="M0.754883 0H61.5849V40H0.754883V0Z"/>
</mask>
<path d="M60.5849 0V40H62.5849V0H60.5849ZM1.75488 40V0H-0.245117V40H1.75488Z" fill="#99A4CC" mask="url(#path-1-inside-1_2014_65400)"/>
<g clip-path="url(#clip0_2014_65400)">
<path d="M26.1055 8H36.2344C38.1191 8 39.834 8.77344 41.0781 10.0156C42.3242 11.2598 43.0977 12.9766 43.0977 14.8633V25.1387C43.0977 27.0215 42.3242 28.7363 41.082 29.9805L41.0781 29.9844C39.832 31.2285 38.1172 32 36.2363 32H26.1055C24.2188 32 22.502 31.2266 21.2578 29.9844L21.2109 29.9316C19.9961 28.6934 19.2422 26.998 19.2422 25.1367V14.8633C19.2422 12.9746 20.0137 11.2598 21.2578 10.0156C22.502 8.77148 24.2168 8 26.1055 8ZM37.1152 14.0586L37.1289 14.0801H41.3477C41.1777 12.9707 40.6484 11.9746 39.8867 11.2109C38.9492 10.2734 37.6562 9.69141 36.2344 9.69141H34.502L37.1152 14.0586ZM35.1641 14.0801L32.5371 9.69141H26.7754L29.4336 14.0801H35.1641ZM27.4668 14.0801L24.8965 9.83398C23.957 10.0605 23.1152 10.5469 22.4531 11.2109C21.6914 11.9727 21.1641 12.9707 20.9922 14.0801H27.4668ZM41.4062 15.7715H20.9336V25.1387C20.9336 26.5391 21.498 27.8145 22.4102 28.748L22.4531 28.7891C23.3906 29.7266 24.6855 30.3105 26.1055 30.3105H36.2344C37.6562 30.3105 38.9492 29.7285 39.8848 28.793L39.8887 28.7891C40.8242 27.8535 41.4062 26.5605 41.4062 25.1387V15.7715ZM29.1934 18.7324L34.4336 22.1406C34.5176 22.1953 34.5938 22.2656 34.6543 22.3516C34.8926 22.6973 34.8047 23.1719 34.459 23.4102L29.2402 26.4902C29.1094 26.5977 28.9414 26.6621 28.7559 26.6621C28.334 26.6621 27.9922 26.3203 27.9922 25.8984V19.3574H27.9961C27.9961 19.207 28.041 19.0547 28.1328 18.9219C28.375 18.5762 28.8496 18.4922 29.1934 18.7324Z" fill="#000034" stroke="#000034"/>
</g>
<defs>
<clipPath id="clip0_2014_65400">
<rect width="23.8555" height="24" fill="white" transform="translate(19.2422 8)"/>
</clipPath>
</defs>
</svg>
