<svg width="27" height="24" viewBox="0 0 27 24" fill="none" xmlns="http://www.w3.org/2000/svg">
<path d="M14.1479 0.40312L17.366 7.93768L25.5278 8.66984C25.8881 8.70097 26.1545 9.0182 26.1232 9.37824C26.1082 9.55375 26.0251 9.70673 25.9022 9.81425L25.9026 9.81446L19.7279 15.2062L21.5541 23.1977C21.635 23.5505 21.4142 23.902 21.0613 23.9829C20.8805 24.0244 20.7003 23.9866 20.5563 23.8926L13.543 19.6997L6.5073 23.9061C6.19683 24.0916 5.7946 23.9904 5.60885 23.68C5.51853 23.5292 5.49621 23.3564 5.53246 23.1977H5.53184L7.35824 15.2062L1.18355 9.81466C0.91137 9.57648 0.883927 9.16279 1.1219 8.89061C1.24294 8.75216 1.40965 8.67721 1.57963 8.66799L9.71998 7.93768L12.9396 0.399024C13.0814 0.0658157 13.4664 -0.0892172 13.7996 0.0525038C13.9634 0.122135 14.0843 0.250749 14.1479 0.40312ZM16.3131 8.81094L13.543 2.32455L10.7727 8.81094L10.7718 8.81074C10.6801 9.02598 10.4755 9.1847 10.226 9.20641L3.2002 9.83678L8.48791 14.454C8.68227 14.6055 8.78241 14.8611 8.72384 15.1175L7.15221 21.9943L13.195 18.3814C13.3969 18.255 13.6607 18.2438 13.8795 18.3747L19.9339 21.9943L18.3625 15.1175L18.3631 15.1171C18.3115 14.89 18.3828 14.6424 18.5704 14.4783L23.8859 9.83678L16.8964 9.20969C16.649 9.2019 16.4165 9.05363 16.3131 8.81094Z" fill="black"/>
</svg>
