<svg width="25" height="24" viewBox="0 0 25 24" fill="none" xmlns="http://www.w3.org/2000/svg">
<path d="M5.06445 0H20.0215C20.6147 0.000406247 21.202 0.117938 21.7496 0.345851C22.2973 0.573764 22.7945 0.907573 23.2129 1.32813C23.6333 1.7466 23.967 2.24389 24.1949 2.79153C24.4228 3.33916 24.5404 3.92637 24.541 4.51953V19.4785C24.5406 20.0717 24.4231 20.659 24.1952 21.2066C23.9673 21.7543 23.6334 22.2516 23.2129 22.6699C22.7944 23.0903 22.2971 23.424 21.7495 23.6519C21.2019 23.8798 20.6146 23.9974 20.0215 23.998H5.06445C4.47126 23.9976 3.88399 23.8801 3.33632 23.6522C2.78866 23.4243 2.29139 23.0905 1.87305 22.6699C1.45231 22.2516 1.11826 21.7544 0.89002 21.2067C0.661781 20.6591 0.543844 20.0718 0.542969 19.4785L0.542969 4.52148C0.543375 3.92829 0.660906 3.34102 0.888819 2.79336C1.11673 2.24569 1.45054 1.74842 1.87109 1.33008C2.28977 0.909286 2.78733 0.575209 3.3353 0.346975C3.88326 0.118741 4.47086 0.000832065 5.06445 0ZM13.4902 15.0391L10.4355 13.625C10.1135 14.0013 9.68664 14.273 9.20941 14.4054C8.73219 14.5379 8.22631 14.525 7.75645 14.3684C7.28658 14.2119 6.87406 13.9188 6.57161 13.5266C6.26916 13.1345 6.09052 12.661 6.05852 12.1668C6.02651 11.6726 6.14261 11.18 6.39195 10.7521C6.6413 10.3242 7.01258 9.98036 7.45833 9.76453C7.90409 9.5487 8.40408 9.47069 8.89439 9.54047C9.38471 9.61025 9.84309 9.82464 10.2109 10.1563L13.459 8.80274C13.4379 8.6736 13.4275 8.54295 13.4277 8.41211C13.4283 7.752 13.6908 7.1191 14.1578 6.65251C14.6248 6.18592 15.2579 5.92383 15.918 5.92383C16.3187 5.92334 16.7136 6.01947 17.0692 6.20409C17.4249 6.3887 17.7308 6.65635 17.961 6.98435C18.1912 7.31234 18.3389 7.691 18.3916 8.08823C18.4443 8.48545 18.4004 8.88953 18.2637 9.2662C18.127 9.64287 17.9015 9.98102 17.6063 10.252C17.3111 10.523 16.9549 10.7188 16.568 10.8228C16.181 10.9268 15.7746 10.936 15.3834 10.8495C14.9921 10.7631 14.6274 10.5835 14.3203 10.3262L11.0156 11.7051C11.0273 11.799 11.0332 11.8936 11.0332 11.9883L14.4727 13.5723C14.9446 13.2362 15.5193 13.0762 16.097 13.1201C16.6747 13.164 17.2187 13.409 17.6344 13.8125C18.0501 14.2161 18.3112 14.7526 18.3722 15.3287C18.4332 15.9049 18.2903 16.4841 17.9683 16.9658C17.6463 17.4474 17.1657 17.801 16.61 17.9649C16.0543 18.1288 15.4588 18.0927 14.927 17.8629C14.3952 17.6331 13.9607 17.2241 13.6993 16.7071C13.4379 16.1901 13.366 15.5977 13.4961 15.0332L13.4902 15.0391ZM20.0215 1.82422H5.06445C4.71127 1.82292 4.3613 1.89126 4.03455 2.02531C3.70779 2.15936 3.41067 2.35651 3.16016 2.60547C2.91119 2.85598 2.71405 3.15311 2.58 3.47986C2.44594 3.80661 2.37761 4.15659 2.37891 4.50977V19.4785C2.37761 19.8317 2.44594 20.1817 2.58 20.5084C2.71405 20.8352 2.91119 21.1323 3.16016 21.3828C3.41067 21.6318 3.70779 21.8289 4.03455 21.963C4.3613 22.097 4.71127 22.1654 5.06445 22.1641H20.0215C20.3747 22.1654 20.7246 22.097 21.0514 21.963C21.3781 21.8289 21.6753 21.6318 21.9258 21.3828C22.1747 21.1323 22.3719 20.8352 22.5059 20.5084C22.64 20.1817 22.7083 19.8317 22.707 19.4785V4.52148C22.7083 4.1683 22.64 3.81833 22.5059 3.49158C22.3719 3.16483 22.1747 2.8677 21.9258 2.61719C21.6753 2.36823 21.3781 2.17108 21.0514 2.03703C20.7246 1.90298 20.3747 1.83464 20.0215 1.83594V1.82422Z" fill="#000034"/>
</svg>
