<svg width="41" height="24" viewBox="0 0 41 24" fill="none" xmlns="http://www.w3.org/2000/svg">
<path d="M2.52193 12.2811L17.7847 21.4028L17.7146 20.5822C17.6828 20.1899 17.9749 19.8445 18.3665 19.8126C18.7588 19.7808 19.1043 20.0729 19.1361 20.4644L19.351 22.9954C19.3828 23.3877 19.0907 23.7324 18.6991 23.765L16.2152 23.9751C15.8236 24.0069 15.4782 23.7156 15.4464 23.3233C15.4145 22.9309 15.7058 22.5855 16.0982 22.5537L16.832 22.4916L1.85577 13.5402L2.04599 14.2517C2.14786 14.6322 1.92183 15.023 1.5414 15.1248C1.16176 15.2259 0.770978 14.9999 0.669104 14.6202L0.0244351 12.2127C-0.0774386 11.833 0.148594 11.4415 0.528232 11.3404L2.98116 10.683C3.3608 10.5819 3.75237 10.8079 3.85345 11.1876C3.95533 11.5672 3.72929 11.9588 3.34886 12.0599L2.52193 12.2811ZM24.1462 15.3421L23.1959 14.3918C22.9174 14.1141 22.9174 13.662 23.1959 13.3834C23.4745 13.1049 23.9265 13.1049 24.2051 13.3834L25.4005 14.5789L34.1139 9.27506L28.9581 6.33585L22.1071 11.2855L22.5847 11.763C22.8624 12.0408 22.8624 12.4928 22.5847 12.7714C22.3061 13.05 21.854 13.05 21.5755 12.7714L20.9356 12.1315L19.9375 12.8526C19.6192 13.0818 19.1751 13.0094 18.9459 12.691C18.7167 12.3727 18.7883 11.9278 19.1074 11.6985L27.6012 5.56224L20.5257 1.52868L16.8097 3.62664L19.7203 6.20373C19.78 6.24909 19.8341 6.30401 19.8787 6.36848C20.1031 6.69161 20.0235 7.13651 19.7004 7.36095L12.3504 12.4721L15.5339 14.3743L17.4862 12.7778C17.7902 12.5287 18.2399 12.574 18.489 12.878C18.7389 13.1829 18.6936 13.6325 18.3895 13.8817L16.836 15.1519L20.6833 17.4504L24.1462 15.3421ZM35.8856 9.86242L21.0574 18.8886C20.9468 18.9564 20.8198 18.9926 20.6901 18.9932C20.5604 18.9938 20.4331 18.9587 20.322 18.8918L5.12449 9.81228C5.0191 9.74811 4.93195 9.65795 4.87139 9.55044C4.67958 9.209 4.80056 8.77524 5.14199 8.58343L20.1397 0.115982C20.3554 -0.0248903 20.6403 -0.0431957 20.8799 0.0929011L35.8561 8.63039C35.9628 8.68849 36.0551 8.77365 36.1219 8.88428C36.3265 9.21935 36.2206 9.65788 35.8856 9.86242ZM15.5005 4.36523L6.90489 9.21855L11.0069 11.6691L18.1436 6.70593L15.5005 4.36523ZM25.3766 22.599C25.7563 22.6993 25.9839 23.0893 25.8836 23.4689C25.7841 23.8486 25.3942 24.0762 25.0137 23.9759L22.6046 23.3392C22.2241 23.2389 21.9973 22.8489 22.0968 22.4693L22.7462 20.014C22.8465 19.6343 23.2365 19.4075 23.6161 19.507C23.9958 19.6073 24.2226 19.9973 24.1231 20.3769L23.8979 21.2301L38.1928 12.9839L37.4001 12.7714C37.0197 12.6695 36.7937 12.2787 36.8955 11.8991C36.9966 11.5187 37.3882 11.2926 37.7678 11.3945L40.2208 12.0519C40.6004 12.153 40.8264 12.5446 40.7246 12.9242L40.0799 15.3318C39.978 15.7114 39.5872 15.9374 39.2076 15.8364C38.8272 15.7345 38.6011 15.3437 38.703 14.9633L38.9036 14.2135L24.6842 22.416L25.3766 22.599Z" fill="#005F73" stroke="#005F73"/>
</svg>
