<svg width="29" height="25" viewBox="0 0 29 25" fill="none" xmlns="http://www.w3.org/2000/svg">
<g clip-path="url(#clip0_2014_30169)">
<path fill-rule="evenodd" clip-rule="evenodd" d="M11.9997 0.5C18.6273 0.5 24 5.87266 24 12.4997C24 19.1273 18.6273 24.5 11.9997 24.5C5.37266 24.5 0 19.1273 0 12.4997C0 5.87266 5.37266 0.5 11.9997 0.5Z" fill="#FFEDED"/>
<path d="M11.9996 0.508789C15.3107 0.508789 18.3088 1.85085 20.4786 4.02121C22.6484 6.19103 23.991 9.18916 23.991 12.4996C23.991 15.8107 22.6484 18.8088 20.4786 20.9786C18.3088 23.1484 15.3107 24.491 11.9996 24.491C8.68915 24.491 5.69103 23.1484 3.52066 20.9786C1.35084 18.8088 0.00878906 15.8107 0.00878906 12.4996C0.00878906 9.18916 1.35084 6.19103 3.52066 4.02121C5.69103 1.85085 8.68915 0.508789 11.9996 0.508789ZM19.4328 5.06701C17.531 3.16516 14.9023 1.98844 11.9996 1.98844C9.09693 1.98844 6.46885 3.16516 4.56701 5.06701C2.66516 6.96886 1.48843 9.59693 1.48843 12.4996C1.48843 15.4023 2.66516 18.031 4.56701 19.9328C6.46885 21.8347 9.09693 23.0114 11.9996 23.0114C14.9023 23.0114 17.531 21.8347 19.4328 19.9328C21.3347 18.031 22.5114 15.4023 22.5114 12.4996C22.5114 9.59693 21.3347 6.96886 19.4328 5.06701Z" fill="#DE4A4A"/>
<path d="M11.9994 4.43262C14.2269 4.43262 16.2436 5.33583 17.7033 6.7955C19.1629 8.25517 20.0667 10.2724 20.0667 12.4994C20.0667 14.7269 19.1629 16.7436 17.7033 18.2033C16.2436 19.6635 14.2269 20.5667 11.9994 20.5667C9.77242 20.5667 7.75517 19.6635 6.2955 18.2033C4.83583 16.7436 3.93262 14.7269 3.93262 12.4994C3.93262 10.2724 4.83583 8.25517 6.2955 6.7955C7.75517 5.33583 9.77242 4.43262 11.9994 4.43262ZM16.6575 7.8413C15.4658 6.64959 13.8186 5.91226 11.9994 5.91226C10.1802 5.91226 8.533 6.64959 7.3413 7.8413C6.14959 9.033 5.41226 10.6802 5.41226 12.4994C5.41226 14.3186 6.14959 15.9658 7.3413 17.1575C8.533 18.3497 10.1802 19.087 11.9994 19.087C13.8186 19.087 15.4658 18.3497 16.6575 17.1575C17.8497 15.9658 18.587 14.3186 18.587 12.4994C18.587 10.6802 17.8497 9.033 16.6575 7.8413Z" fill="#DE4A4A"/>
<path d="M11.9998 8.50586C13.0989 8.50586 14.097 8.95303 14.8216 9.67593L14.8243 9.6787C15.5478 10.4044 15.9944 11.4013 15.9944 12.4998C15.9944 13.5989 15.5472 14.5975 14.8243 15.3216L14.8216 15.3243C14.0959 16.0478 13.0983 16.4944 11.9998 16.4944C10.9002 16.4944 9.90271 16.0472 9.1787 15.3243L9.17593 15.3216C8.45247 14.5959 8.00586 13.5983 8.00586 12.4998C8.00586 11.4002 8.45303 10.4027 9.17593 9.6787L9.1787 9.67593C9.90438 8.95247 10.9013 8.50586 11.9998 8.50586ZM13.7785 10.7189C13.3253 10.2662 12.6967 9.98551 11.9998 9.98551C11.3036 9.98551 10.6744 10.2662 10.2217 10.7189L10.2189 10.7217C9.76568 11.1744 9.48551 11.8036 9.48551 12.4998C9.48551 13.1967 9.76568 13.8253 10.2189 14.2785L10.2217 14.2807C10.6744 14.734 11.3036 15.0147 11.9998 15.0147C12.6967 15.0147 13.3253 14.734 13.7785 14.2807L13.7807 14.2785C14.234 13.8253 14.5147 13.1967 14.5147 12.4998C14.5147 11.8036 14.234 11.1744 13.7807 10.7217L13.7785 10.7189Z" fill="#DE4A4A"/>
<path d="M12.9372 12.7694C12.2359 13.1772 11.6173 12.1186 12.3147 11.708L20.488 6.82416L21.1987 4.60886C21.2213 4.53607 21.2577 4.46828 21.3058 4.40913C21.3535 4.34976 21.4123 4.29928 21.4777 4.26155L25.6709 1.83986C25.8185 1.75442 25.9866 1.73722 26.1391 1.77772C26.2906 1.81878 26.4282 1.91809 26.5136 2.06566C26.5552 2.13711 26.582 2.21615 26.5924 2.29812C26.6019 2.37635 26.5957 2.45624 26.5758 2.53225L26.229 4.29262L27.9972 4.92953C28.1581 4.98667 28.2796 5.10429 28.3467 5.24687C28.4138 5.3889 28.4266 5.55756 28.3689 5.71734C28.345 5.78447 28.3101 5.8455 28.2685 5.89654L28.2918 5.93149L23.9044 8.4647C23.8256 8.51019 23.7385 8.53627 23.652 8.54459C23.5621 8.55236 23.4722 8.54126 23.3896 8.51186L21.1049 7.88882L12.9372 12.7694Z" fill="#2B2A29"/>
</g>
<defs>
<clipPath id="clip0_2014_30169">
<rect width="28.4056" height="24" fill="white" transform="translate(0 0.5)"/>
</clipPath>
</defs>
</svg>
