<svg width="24" height="24" viewBox="0 0 24 24" fill="none" xmlns="http://www.w3.org/2000/svg">
<path fill-rule="evenodd" clip-rule="evenodd" d="M0.163086 23.6873V23.2393C0.163086 18.7727 2.59795 18.4468 5.05963 18.1175C6.85549 17.8771 8.66754 17.6344 9.30746 15.4506L9.27232 15.4196C9.18355 15.3405 9.07165 15.2439 8.96161 15.1496L8.94357 15.1329C8.13442 14.4357 7.46166 13.8461 7.34052 12.4109C6.9304 12.3688 6.56558 12.0651 6.30896 11.6582C6.1009 11.3276 5.96172 10.9239 5.93537 10.5503C5.92519 10.4121 5.93028 10.2766 5.95201 10.1481H5.66303C5.55576 10.1481 5.46791 10.0602 5.46791 9.95294V8.85387C5.46791 8.73458 5.56547 8.63748 5.6843 8.63748H6.04957V8.08957C6.04957 7.84497 6.14945 7.62257 6.31035 7.46166C6.39265 7.37936 6.49022 7.31324 6.59934 7.26839C6.55079 5.96727 6.35382 4.63239 5.2247 4.2907C8.37115 0.402132 11.998 -1.71231 14.7214 1.74672C17.3264 1.88358 18.6918 5.19695 17.835 7.6554C17.9085 7.7844 17.9502 7.93236 17.9502 8.08957V8.63748H18.3154C18.4343 8.63748 18.5318 8.73458 18.5318 8.85387V9.95294C18.5318 10.0602 18.444 10.1481 18.3367 10.1481H17.9502V10.3654C17.9502 10.5448 17.9247 10.7182 17.8776 10.8823C17.8188 11.2254 17.6917 11.5749 17.5118 11.8468C17.2663 12.2181 16.9343 12.4609 16.5432 12.4239C16.5214 13.7259 15.8889 14.3233 15.0594 15.1024C15.716 17.2945 17.4739 17.6348 19.2013 17.9691C21.5442 18.4222 23.8366 18.8652 23.8366 23.1398V23.6873C23.8366 23.8598 23.6965 23.9999 23.5241 23.9999H0.475651C0.303185 23.9999 0.163086 23.8598 0.163086 23.6873ZM7.30769 8.35312H8.04148C8.19776 8.35312 8.32538 8.48027 8.32538 8.63702V9.35092C8.32538 9.50721 8.19776 9.63436 8.04148 9.63436H7.30769C7.15141 9.63436 7.0238 9.50721 7.0238 9.35092V8.63702C7.0238 8.48027 7.15141 8.35312 7.30769 8.35312ZM6.93826 7.66788C6.70661 7.66788 6.51703 7.85838 6.51703 8.08957V10.3654C6.51703 11.1408 7.15141 11.7761 7.92727 11.7761H10.272C11.1533 11.7761 11.5851 10.5753 11.9791 10.5753C12.4188 10.5753 12.8104 11.7761 13.7278 11.7761H16.0725C16.8479 11.7761 17.4827 11.1412 17.4827 10.3654V8.08957C17.4827 7.85792 17.2931 7.66788 17.061 7.66788H6.93826ZM8.7651 7.20088H16.0475C15.9841 6.87861 15.8912 6.5998 15.7752 6.35705C15.4547 5.68892 14.9438 5.28434 14.3899 4.98195C13.1609 5.92381 12.2953 6.03061 11.4321 6.13742C10.7182 6.22574 10.0056 6.31359 9.06148 6.96692C8.95421 7.0409 8.85526 7.11904 8.7651 7.20088ZM15.9162 12.2431H13.7278C12.9722 12.2431 12.5362 11.7335 12.1797 11.3169C12.053 11.1685 12.0124 11.0428 11.9791 11.0428C11.9217 11.0428 11.9361 11.1597 11.8168 11.3003C11.4603 11.7197 11.015 12.2431 10.272 12.2431H7.95363C8.03316 13.5151 8.62916 14.0389 9.35046 14.6604L9.36942 14.6756C9.46559 14.7579 9.56408 14.843 9.688 14.953C10.4542 15.6346 11.2601 15.9869 12.0503 15.9865C12.8187 15.986 13.5877 15.6503 14.3039 14.9591C14.4195 14.8476 14.5249 14.7482 14.6271 14.6525C15.377 13.9478 15.9411 13.4175 15.9162 12.2431ZM10.321 13.3611H13.4799C13.7731 13.3495 13.8489 13.5044 13.7504 13.7185C12.9057 15.6235 10.1231 14.6853 10.0866 13.6922C10.0819 13.546 10.1559 13.3736 10.321 13.3611ZM11.4307 12.6366C11.3819 12.5951 11.3513 12.5362 11.3456 12.4724C11.3428 12.4407 11.3462 12.4087 11.3558 12.3783C11.3654 12.3479 11.381 12.3197 11.4016 12.2953C11.4221 12.2705 11.4474 12.25 11.476 12.235C11.5046 12.2201 11.5359 12.2111 11.568 12.2084C11.6295 12.2028 11.6947 12.2209 11.7451 12.2643C11.7812 12.2953 11.8228 12.3171 11.8644 12.3332C11.9111 12.3513 11.9583 12.3619 11.9943 12.3619C12.0304 12.3619 12.0775 12.3531 12.1284 12.3351C12.1696 12.3184 12.213 12.2953 12.2509 12.2662L12.2602 12.2588C12.3106 12.219 12.3739 12.2028 12.4336 12.2084C12.4932 12.2139 12.551 12.2431 12.5945 12.2916L12.6033 12.3023C12.6416 12.3515 12.6598 12.4135 12.6541 12.4756C12.6486 12.5376 12.6181 12.5968 12.5654 12.6403C12.4837 12.7069 12.3915 12.7594 12.2926 12.7956C12.1894 12.8335 12.0849 12.852 11.9911 12.8497C11.8968 12.8483 11.796 12.8284 11.6961 12.7919C11.6022 12.7558 11.5121 12.7054 11.4344 12.6384L11.4307 12.6366ZM10.7061 14.0371L10.5637 13.6667H13.3075L13.184 14.0371H10.7061ZM14.591 15.5957C13.6339 16.9154 10.8435 16.944 9.80174 15.8963C9.54189 16.9801 8.86682 17.7287 7.86855 18.216C10.7311 19.962 13.5534 19.9102 16.3305 17.8507C15.2619 17.3657 14.7223 16.5922 14.591 15.5957Z" fill="#000034"/>
</svg>
