<svg width="62" height="40" viewBox="0 0 62 40" fill="none" xmlns="http://www.w3.org/2000/svg">
<mask id="path-1-inside-1_2014_65418" fill="white">
<path d="M0.245117 0H61.0751V40H0.245117V0Z"/>
</mask>
<path d="M60.0751 0V40H62.0751V0H60.0751ZM1.24512 40V0H-0.754883V40H1.24512Z" fill="#99A4CC" mask="url(#path-1-inside-1_2014_65418)"/>
<g clip-path="url(#clip0_2014_65418)">
<path fill-rule="evenodd" clip-rule="evenodd" d="M18.8232 31.6873V31.2393C18.8232 26.7727 21.2581 26.4468 23.7198 26.1175C25.5156 25.8771 27.3277 25.6344 27.9676 23.4506L27.9325 23.4196C27.8437 23.3405 27.7318 23.2439 27.6218 23.1496L27.6037 23.1329C26.7946 22.4357 26.1218 21.8461 26.0007 20.4109C25.5906 20.3688 25.2257 20.0651 24.9691 19.6582C24.7611 19.3276 24.6219 18.9239 24.5955 18.5503C24.5854 18.4121 24.5904 18.2766 24.6122 18.1481H24.3232C24.2159 18.1481 24.1281 18.0602 24.1281 17.9529V16.8539C24.1281 16.7346 24.2256 16.6375 24.3445 16.6375H24.7097V16.0896C24.7097 15.845 24.8096 15.6226 24.9705 15.4617C25.0528 15.3794 25.1504 15.3132 25.2595 15.2684C25.2109 13.9673 25.014 12.6324 23.8849 12.2907C27.0313 8.40213 30.6582 6.28769 33.3816 9.74672C35.9866 9.88358 37.352 13.197 36.4952 15.6554C36.5687 15.7844 36.6103 15.9324 36.6103 16.0896V16.6375H36.9756C37.0944 16.6375 37.192 16.7346 37.192 16.8539V17.9529C37.192 18.0602 37.1041 18.1481 36.9969 18.1481H36.6103V18.3654C36.6103 18.5448 36.5849 18.7182 36.5377 18.8823C36.479 19.2254 36.3519 19.5749 36.172 19.8468C35.9265 20.2181 35.5945 20.4609 35.2033 20.4239C35.1816 21.7259 34.5491 22.3233 33.7196 23.1024C34.3761 25.2945 36.1341 25.6348 37.8615 25.9691C40.2044 26.4222 42.4968 26.8652 42.4968 31.1398V31.6873C42.4968 31.8598 42.3567 31.9999 42.1842 31.9999H19.1358C18.9633 31.9999 18.8232 31.8598 18.8232 31.6873ZM25.9678 16.3531H26.7016C26.8579 16.3531 26.9855 16.4803 26.9855 16.637V17.3509C26.9855 17.5072 26.8579 17.6344 26.7016 17.6344H25.9678C25.8116 17.6344 25.684 17.5072 25.684 17.3509V16.637C25.684 16.4803 25.8116 16.3531 25.9678 16.3531ZM25.5984 15.6679C25.3668 15.6679 25.1772 15.8584 25.1772 16.0896V18.3654C25.1772 19.1408 25.8116 19.7761 26.5874 19.7761H28.9321C29.8134 19.7761 30.2453 18.5753 30.6392 18.5753C31.0789 18.5753 31.4706 19.7761 32.3879 19.7761H34.7326C35.508 19.7761 36.1429 19.1412 36.1429 18.3654V16.0896C36.1429 15.8579 35.9533 15.6679 35.7212 15.6679H25.5984ZM27.4253 15.2009H34.7076C34.6443 14.8786 34.5514 14.5998 34.4353 14.3571C34.1149 13.6889 33.604 13.2843 33.05 12.9819C31.821 13.9238 30.9555 14.0306 30.0922 14.1374C29.3783 14.2257 28.6658 14.3136 27.7216 14.9669C27.6144 15.0409 27.5154 15.119 27.4253 15.2009ZM34.5763 20.2431H32.3879C31.6324 20.2431 31.1964 19.7335 30.8399 19.3169C30.7132 19.1685 30.6725 19.0428 30.6392 19.0428C30.5819 19.0428 30.5962 19.1597 30.4769 19.3003C30.1204 19.7197 29.6752 20.2431 28.9321 20.2431H26.6138C26.6933 21.5151 27.2893 22.0389 28.0106 22.6604L28.0296 22.6756C28.1258 22.7579 28.2242 22.843 28.3482 22.953C29.1143 23.6346 29.9202 23.9869 30.7104 23.9865C31.4789 23.986 32.2478 23.6503 32.964 22.9591C33.0796 22.8476 33.1851 22.7482 33.2872 22.6525C34.0372 21.9478 34.6013 21.4175 34.5763 20.2431ZM28.9811 21.3611H32.1401C32.4332 21.3495 32.5091 21.5044 32.4106 21.7185C31.5658 23.6235 28.7832 22.6853 28.7467 21.6922C28.7421 21.546 28.8161 21.3736 28.9811 21.3611ZM30.0908 20.6366C30.042 20.5951 30.0115 20.5362 30.0058 20.4724C30.0029 20.4407 30.0064 20.4087 30.016 20.3783C30.0256 20.3479 30.0411 20.3197 30.0617 20.2953C30.0823 20.2705 30.1076 20.25 30.1362 20.235C30.1647 20.2201 30.196 20.2111 30.2282 20.2084C30.2897 20.2028 30.3549 20.2209 30.4053 20.2643C30.4413 20.2953 30.4829 20.3171 30.5245 20.3332C30.5712 20.3513 30.6184 20.3619 30.6545 20.3619C30.6905 20.3619 30.7377 20.3531 30.7886 20.3351C30.8297 20.3184 30.8732 20.2953 30.9111 20.2662L30.9203 20.2588C30.9707 20.219 31.0341 20.2028 31.0937 20.2084C31.1534 20.2139 31.2112 20.2431 31.2546 20.2916L31.2634 20.3023C31.3018 20.3515 31.3199 20.4135 31.3143 20.4756C31.3087 20.5376 31.2782 20.5968 31.2255 20.6403C31.1439 20.7069 31.0517 20.7594 30.9527 20.7956C30.8496 20.8335 30.7451 20.852 30.6512 20.8497C30.5569 20.8483 30.4561 20.8284 30.3562 20.7919C30.2624 20.7558 30.1722 20.7054 30.0945 20.6384L30.0908 20.6366ZM29.3663 22.0371L29.2239 21.6667H31.9676L31.8442 22.0371H29.3663ZM33.2512 23.5957C32.2941 24.9154 29.5036 24.944 28.4619 23.8963C28.202 24.9801 27.527 25.7287 26.5287 26.216C29.3913 27.962 32.2136 27.9102 34.9906 25.8507C33.9221 25.3657 33.3825 24.5922 33.2512 23.5957Z" fill="#000034"/>
</g>
<defs>
<clipPath id="clip0_2014_65418">
<rect width="23.6736" height="24" fill="white" transform="translate(18.8232 8)"/>
</clipPath>
</defs>
</svg>
